<?xml version="1.0"?>
<svg xmlns="http://www.w3.org/2000/svg" height="512px" viewBox="0 -15 402.77867 402" width="512px" class="hovered-paths"><g transform="matrix(0.710411 0 0 0.710411 58.3201 53.8635)"><path d="m337.921875 181.296875c0 88.601563-71.828125 160.425781-160.429687 160.425781-88.597657 0-160.425782-71.824218-160.425782-160.425781s71.828125-160.425781 160.425782-160.425781c88.601562 0 160.429687 71.824218 160.429687 160.425781zm0 0" fill="#edebdc" data-original="#EDEBDC" class="hovered-path active-path" data-old_color="#edebdc" style="fill:#DCE4ED"/><path d="m245.761719 92.550781 40.957031 20.480469v20.476562l-29.371094 28.199219-27.304687 47.789063-38.894531 33.238281 47.785156 47.789063-13.652344 40.960937-40.960938 34.132813-47.785156-95.574219-6.828125-75.09375-34.132812 6.828125-88.746094-194.5625h47.785156l54.613281 30.722656 68.265626 102.398438zm0 0" fill="#9dc1e4" data-original="#9DC1E4" class=""/><g fill="#4c241d"><path d="m184.320312 372.441406c-.464843 0-.933593-.042968-1.398437-.140625-2.039063-.429687-3.773437-1.765625-4.707031-3.632812l-47.789063-95.570313c-.378906-.765625-.609375-1.589844-.691406-2.4375l-6.140625-67.527344-26.679688 5.335938c-3.132812.625-6.238281-.980469-7.554687-3.859375l-88.746094-194.558594c-.960937-2.113281-.785156-4.574219.472657-6.527343 1.253906-1.953126 3.421874-3.132813 5.742187-3.132813h47.785156c1.175781 0 2.328125.300781 3.347657.875l54.613281 30.722656c.941406.527344 1.742187 1.269531 2.332031 2.164063l64.394531 96.589844 62.542969-43.785157c2.054688-1.4375 4.730469-1.625 6.96875-.511719l40.960938 20.480469c2.3125 1.15625 3.773437 3.519531 3.773437 6.105469v20.480469c0 1.859375-.761719 3.636719-2.101563 4.921875l-28.660156 27.519531-26.820312 46.929687c-.386719.683594-.890625 1.296876-1.492188 1.804688l-33.28125 28.445312 42.566406 42.566407c1.828126 1.824219 2.46875 4.53125 1.648438 6.984375l-13.652344 40.960937c-.402344 1.203125-1.128906 2.273438-2.101562 3.085938l-40.960938 34.132812c-1.238281 1.03125-2.789062 1.578125-4.371094 1.578125zm-41.105468-104.296875 43.359375 86.710938 32.84375-27.371094 11.699219-35.117187-44.796876-44.804688c-1.347656-1.34375-2.066406-3.191406-1.996093-5.089844.074219-1.902344.941406-3.6875 2.386719-4.925781l37.988281-32.464844 26.71875-46.757812c.324219-.566407.726562-1.085938 1.199219-1.535157l27.273437-26.1875v-13.347656l-33.546875-16.777344-64.941406 45.457032c-1.503906 1.050781-3.367188 1.445312-5.171875 1.117187-1.808594-.339843-3.398438-1.394531-4.417969-2.925781l-67.359375-101.042969-51.625-29.039062h-35.378906l82.09375 179.976562 28.828125-5.765625c1.910156-.378906 3.867187.070313 5.425781 1.226563 1.546875 1.160156 2.53125 2.921875 2.714844 4.851562zm0 0" data-original="#4C241D" class="" data-old_color="#4C241D" style="fill:#582CBB"/><path d="m229.1875 215.414062c-.320312 0-.648438-.023437-.972656-.066406-3.734375-.535156-6.328125-3.992187-5.792969-7.726562l16.578125-116.039063c.480469-3.34375 3.332031-5.832031 6.707031-5.859375h.054688c3.359375 0 6.21875 2.445313 6.738281 5.761719l10.238281 64.855469c.597657 3.722656-1.953125 7.21875-5.671875 7.804687-3.707031.597657-7.226562-1.953125-7.804687-5.679687l-3.160157-20.007813-10.160156 71.097657c-.488281 3.40625-3.40625 5.859374-6.753906 5.859374zm0 0" data-original="#4C241D" class="" data-old_color="#4C241D" style="fill:#582CBB"/><path d="m191.140625 249.5625c-1.460937 0-2.941406-.46875-4.1875-1.4375l-61.4375-47.785156c-1.480469-1.15625-2.421875-2.871094-2.601563-4.742188-.179687-1.867187.421876-3.730468 1.65625-5.144531l47.785157-54.613281c2.492187-2.839844 6.800781-3.121094 9.632812-.640625 2.839844 2.484375 3.128907 6.792969.648438 9.632812l-43.027344 49.171875 55.730469 43.339844c2.972656 2.316406 3.515625 6.605469 1.195312 9.582031-1.347656 1.730469-3.359375 2.636719-5.394531 2.636719zm0 0" data-original="#4C241D" class="" data-old_color="#4C241D" style="fill:#582CBB"/><path d="m187.726562 246.148438c-3.375 0-6.300781-2.492188-6.757812-5.921876l-12.117188-90.851562-63.472656 47.601562c-3.757812 2.824219-8.824218 3.132813-12.898437.824219-4.082031-2.320312-6.402344-6.839843-5.902344-11.503906l15.863281-149.085937c.398438-3.75 3.679688-6.441407 7.503906-6.066407 3.753907.398438 6.46875 3.765625 6.066407 7.511719l-15.40625 144.835938 69.378906-52.03125c1.941406-1.457032 4.507813-1.769532 6.734375-.832032 2.234375.9375 3.804688 2.988282 4.128906 5.390625l13.652344 102.398438c.5 3.734375-2.128906 7.171875-5.867188 7.671875-.304687.039062-.605468.058594-.90625.058594zm0 0" data-original="#4C241D" class="" data-old_color="#4C241D" style="fill:#582CBB"/><path d="m184.328125 372.441406c-.128906 0-.253906-.003906-.386719-.007812-3.761718-.210938-6.648437-3.429688-6.4375-7.199219l6.828125-122.878906c.175781-3.214844 2.574219-5.863281 5.753907-6.363281 3.1875-.511719 6.273437 1.285156 7.433593 4.292968l34.132813 88.746094c1.351562 3.519531-.40625 7.46875-3.921875 8.824219-3.523438 1.332031-7.464844-.40625-8.824219-3.921875l-22.710938-59.050782-5.066406 91.113282c-.195312 3.632812-3.210937 6.445312-6.800781 6.445312zm0 0" data-original="#4C241D" class="" data-old_color="#4C241D" style="fill:#582CBB"/></g><path d="m395.945312 126.683594-109.226562-13.652344v20.476562zm0 0" fill="#ffce56" data-original="#FFCE56" class=""/><path d="m286.71875 140.335938c-1.730469 0-3.40625-.660157-4.671875-1.851563-1.375-1.289063-2.152344-3.089844-2.152344-4.976563v-20.476562c0-1.957031.839844-3.824219 2.308594-5.117188 1.464844-1.300781 3.433594-1.898437 5.367187-1.660156l109.226563 13.65625c3.492187.4375 6.085937 3.460938 5.980469 6.984375-.113282 3.519531-2.886719 6.382813-6.402344 6.601563l-109.226562 6.828125c-.140626.007812-.289063.011719-.429688.011719zm6.828125-19.574219v5.480469l29.226563-1.824219zm0 0" fill="#4c241d" data-original="#4C241D" class="" data-old_color="#4c241d" style="fill:#582CBB"/></g> </svg>
